<svg width="35" height="35" viewBox="0 0 35 35" fill="none" xmlns="http://www.w3.org/2000/svg">
<path d="M14.4327 2.69503C16.0046 0.576918 19.1752 0.576918 20.7471 2.69503C21.6849 3.95876 23.286 4.54149 24.8167 4.17625C27.3823 3.56408 29.8111 5.60207 29.6538 8.23503C29.5599 9.80593 30.4118 11.2815 31.8192 11.9856C34.1781 13.1658 34.7286 16.2882 32.9156 18.204C31.834 19.3471 31.5381 21.025 32.1636 22.4691C33.212 24.8894 31.6267 27.6352 29.0064 27.9374C27.4431 28.1178 26.1379 29.2129 25.6888 30.7212C24.9362 33.2492 21.9568 34.3336 19.7553 32.8809C18.4418 32.0141 16.738 32.0141 15.4245 32.8809C13.2229 34.3336 10.2436 33.2492 9.49095 30.7212C9.04189 29.2129 7.73669 28.1178 6.17335 27.9374C3.55307 27.6352 1.9678 24.8894 3.01619 22.4691C3.64169 21.025 3.34582 19.3471 2.26415 18.204C0.451175 16.2882 1.00173 13.1658 3.36062 11.9856C4.768 11.2815 5.61991 9.80593 5.52603 8.23503C5.36868 5.60207 7.79745 3.56408 10.3631 4.17625C11.8938 4.54149 13.4949 3.95876 14.4327 2.69503Z" stroke="#30333F" stroke-width="1.28" stroke-linejoin="round"/>
<circle cx="17.588" cy="17.3204" r="8.1407" fill="#FF9975"/>
<path d="M13.5195 17.5736L16.063 20.1171L21.6582 14.5222" stroke="white" stroke-width="1.28" stroke-linecap="round" stroke-linejoin="round"/>
<path d="M28.6564 20.2612C30.2939 14.1499 26.6671 7.86817 20.5558 6.23064C14.4445 4.59311 8.16275 8.21985 6.52522 14.3312C4.88769 20.4425 8.51444 26.7242 14.6258 28.3618C17.8529 29.2265 21.1275 28.6233 23.7408 26.9615M25.8676 25.2197C26.4433 24.6194 26.9572 23.9524 27.3957 23.2266" stroke="#30333F" stroke-width="1.28" stroke-linecap="round"/>
</svg>
