<svg width="34" height="34" viewBox="0 0 34 34" fill="none" xmlns="http://www.w3.org/2000/svg">
<path d="M14.0833 2.63269C15.606 0.580771 18.6775 0.580771 20.2003 2.63269C21.1088 3.85693 22.6598 4.42145 24.1427 4.06763C26.6282 3.47459 28.9811 5.44888 28.8286 7.99956C28.7377 9.52138 29.563 10.9508 30.9264 11.633C33.2116 12.7763 33.7449 15.8011 31.9886 17.657C30.9407 18.7644 30.6541 20.3898 31.2601 21.7888C32.2757 24.1335 30.7399 26.7935 28.2015 27.0863C26.6871 27.261 25.4227 28.3219 24.9876 29.7831C24.2585 32.2321 21.3723 33.2826 19.2395 31.8752C17.9671 31.0355 16.3165 31.0355 15.044 31.8752C12.9113 33.2826 10.0251 32.2321 9.29592 29.7831C8.86089 28.3219 7.59648 27.261 6.082 27.0863C3.5436 26.7935 2.00787 24.1335 3.02349 21.7888C3.62945 20.3898 3.34283 18.7644 2.29496 17.657C0.538638 15.8011 1.07199 12.7763 3.35716 11.633C4.72057 10.9508 5.54585 9.52138 5.4549 7.99956C5.30247 5.44888 7.65534 3.47459 10.1408 4.06763C11.6237 4.42145 13.1747 3.85693 14.0833 2.63269Z" stroke="#30333F" stroke-width="1.24" stroke-linejoin="round"/>
<circle cx="17.1422" cy="16.8004" r="7.8863" fill="#FF9975"/>
<path d="M27.8602 19.65C29.4465 13.7297 25.9331 7.64426 20.0127 6.0579C14.0924 4.47154 8.00697 7.98495 6.42061 13.9053C4.83426 19.8257 8.34767 25.9111 14.268 27.4974C17.3943 28.3351 20.5666 27.7508 23.0982 26.1409M25.1585 24.4536C25.7163 23.872 26.2141 23.2259 26.6389 22.5228" stroke="#30333F" stroke-width="1.24" stroke-linecap="round"/>
<g clip-path="url(#clip0_14786_69738)">
<path d="M17.513 12.3083L18.2675 14.6346C18.3583 14.9141 18.6168 15.1027 18.9172 15.1027H21.3623C22.0189 15.1027 22.2984 15.948 21.7605 16.3322L19.7834 17.7713C19.5459 17.9459 19.4481 18.2533 19.5389 18.5328L20.2934 20.8591C20.496 21.4878 19.7765 22.0117 19.2455 21.6205L17.2685 20.1814C17.031 20.0068 16.7096 20.0068 16.4651 20.1814L14.4881 21.6205C13.9572 22.0117 13.2376 21.4878 13.4402 20.8591L14.1947 18.5328C14.2855 18.2533 14.1877 17.9459 13.9502 17.7713L11.9662 16.3392C11.4353 15.948 11.7077 15.1097 12.3644 15.1097H14.8095C15.1029 15.1097 15.3683 14.921 15.4592 14.6416L16.2136 12.3153C16.4162 11.6866 17.3034 11.6866 17.506 12.3153L17.513 12.3083Z" fill="white"/>
</g>
<defs>
<clipPath id="clip0_14786_69738">
<rect width="10.3601" height="9.92" fill="white" transform="translate(11.6875 11.8398)"/>
</clipPath>
</defs>
</svg>
