<svg width="34" height="34" viewBox="0 0 34 34" fill="none" xmlns="http://www.w3.org/2000/svg">
<path d="M15.2816 1.90502L9.37686 3.4872C8.53896 3.71172 8.04172 4.57297 8.26623 5.41087L11.2266 16.459" stroke="#30333F" stroke-width="1.178" stroke-linejoin="round"/>
<path d="M14.4908 4.66847C14.7784 6.2683 13.9727 7.85122 12.5583 8.57823C12.1726 8.7765 11.9177 9.19976 12.03 9.6187L14.7074 19.611C14.7318 19.7021 14.8143 19.7654 14.9086 19.7654C15.0237 19.7654 15.1169 19.6721 15.1169 19.5571L15.1169 4.58445C15.1169 4.37927 14.9223 4.22993 14.7241 4.28304C14.5577 4.32764 14.4603 4.49885 14.4908 4.66847Z" fill="#FF9975"/>
<path d="M15.1152 19.6458L15.1152 2.6505C15.1152 1.78304 15.8184 1.07983 16.6859 1.07983L31.1623 1.07983C32.0298 1.07983 32.733 1.78304 32.733 2.6505L32.733 30.9225C32.733 31.79 32.0298 32.4932 31.1623 32.4932L24.4847 32.4932" stroke="#30333F" stroke-width="1.178" stroke-linejoin="round"/>
<path d="M27.1012 19.7342C27.5349 19.7342 27.8857 20.0858 27.8857 20.5195L27.8857 21.814C27.8857 22.34 28.4242 22.8106 28.9238 22.9753C29.2703 23.0896 29.6953 23.2944 30.1862 23.6533L30.1864 7.68834C30.1864 7.25461 29.8306 6.91172 29.4067 6.82005C28.0049 6.51691 26.901 5.41319 26.5978 4.01137C26.5062 3.58745 26.1633 3.23175 25.7296 3.23175L22.1187 3.23175C21.685 3.23175 21.3421 3.58745 21.2504 4.01137C20.9472 5.41317 19.8435 6.51687 18.4417 6.82004C18.0178 6.91172 17.6621 7.25459 17.6621 7.68832L17.6621 18.9489C17.6621 19.3826 18.0114 19.7342 18.4451 19.7342C20.6621 19.7342 25.2623 19.7342 27.1012 19.7342Z" fill="#FF9975"/>
<path d="M22.1479 19.79C21.1228 19.1825 20.4355 18.065 20.4355 16.7871C20.4355 14.8605 21.9973 13.2988 23.9238 13.2988C25.8503 13.2988 27.4121 14.8605 27.4121 16.7871C27.4121 18.065 26.7248 19.1825 25.6998 19.79" stroke="white" stroke-width="1.178" stroke-linejoin="round"/>
<circle cx="23.9235" cy="8.10482" r="1.24186" transform="rotate(-90 23.9235 8.10482)" fill="white"/>
<rect x="1.31836" y="18.7383" width="6.07627" height="13.7548" rx="1.57067" stroke="#30333F" stroke-width="1.178" stroke-linejoin="round"/>
<path d="M18.64 29.3028H24.6491C25.5166 29.3028 26.2198 30.006 26.2198 30.8735V30.9222C26.2198 31.7896 25.5166 32.4928 24.6491 32.4928H12.0997C10.4392 32.4928 8.84672 31.8332 7.67258 30.6591V30.6591C7.52581 30.5123 7.44336 30.3132 7.44336 30.1057V20.4528C7.44336 20.0232 7.61933 19.6123 7.93029 19.3159L11.1322 16.2637L11.8583 18.6641C12.0587 19.3268 12.6693 19.7801 13.3617 19.7801H26.4571C27.3246 19.7801 28.0278 20.4929 28.0278 21.3603V21.3603C28.0278 22.2278 27.3246 22.9406 26.4571 22.9406H18.64H28.6736C29.541 22.9406 30.2443 23.6438 30.2443 24.5113V24.5716C30.2443 25.439 29.541 26.1422 28.6736 26.1422H18.64H27.237C28.1044 26.1422 28.8076 26.855 28.8076 27.7225V27.7225C28.8076 28.59 28.1044 29.3028 27.237 29.3028H18.64Z" stroke="#30333F" stroke-width="1.178" stroke-linejoin="round"/>
</svg>
