<svg width="41" height="35" viewBox="0 0 41 35" fill="none" xmlns="http://www.w3.org/2000/svg">
<path d="M19.2529 14.2383C18.1359 14.2383 17.2305 15.1438 17.2305 16.2607V27.8199C17.2305 28.9369 18.1359 29.8424 19.2529 29.8424H31.6885C32.8055 29.8424 33.7109 28.9369 33.7109 27.8199V16.2607C33.7109 15.1438 32.8055 14.2383 31.6885 14.2383H28.6448V17.7288C28.6448 17.9526 28.4633 18.1341 28.2395 18.1341H25.4707H22.7019C22.4781 18.1341 22.2966 17.9526 22.2966 17.7288V14.2383H19.2529Z" fill="#FF9975"/>
<circle cx="12.2416" cy="29.8432" r="3.66348" stroke="#30333F" stroke-width="1.216" stroke-linecap="round" stroke-linejoin="round"/>
<circle cx="12.2392" cy="29.8428" r="0.762687" fill="#30333F" stroke="#30333F" stroke-width="1.216" stroke-linecap="round" stroke-linejoin="round"/>
<path d="M39.4093 29.8435H15.9417M5.71875 1.08008H10.6191C11.5145 1.08008 12.2404 1.80597 12.2404 2.70141V25.9513" stroke="#30333F" stroke-width="1.216" stroke-linecap="round" stroke-linejoin="round"/>
<path d="M3.98633 10.668H9.26265" stroke="#30333F" stroke-width="1.216" stroke-linecap="round" stroke-linejoin="round"/>
<path d="M3.98633 18.8027H9.26265" stroke="#30333F" stroke-width="1.216" stroke-linecap="round" stroke-linejoin="round"/>
<path d="M1.34766 14.7354H6.62398" stroke="#30333F" stroke-width="1.216" stroke-linecap="round" stroke-linejoin="round"/>
<path d="M22.0412 5.95508C21.4252 5.95508 20.9258 6.41016 20.9258 6.97153V13.2215C20.9258 13.7829 21.4252 14.238 22.0412 14.238H28.9001C29.5161 14.238 30.0156 13.7829 30.0156 13.2215V6.97153C30.0156 6.41016 29.5161 5.95508 28.9001 5.95508H22.0412Z" stroke="#30333F" stroke-width="1.216" stroke-linejoin="round"/>
<path d="M25.5332 6.00684V8.31388" stroke="#30333F" stroke-width="1.216" stroke-linecap="round" stroke-linejoin="round"/>
</svg>
