<svg width="36" height="36" viewBox="0 0 36 36" fill="none" xmlns="http://www.w3.org/2000/svg">
<g clip-path="url(#clip0_14786_69802)">
<path d="M12.8892 19.9476C13.1058 19.4484 13.313 18.9681 13.5202 18.4783C13.5391 18.4312 13.5579 18.3747 13.5579 18.3276C13.5579 17.4987 13.5862 16.6605 13.5108 15.8316C13.4449 15.0311 13.2659 14.2305 13.1435 13.4299C13.1058 13.1756 13.2189 12.9966 13.4355 12.9496C13.6709 12.9025 13.8687 13.0249 13.9064 13.2792C14.0383 14.0233 14.1701 14.7673 14.2737 15.5208C14.3397 15.9823 14.3491 16.4533 14.3868 16.9336C14.415 16.9148 14.4244 16.9054 14.4433 16.8865C14.933 16.2932 15.4322 15.6998 15.922 15.1064C15.9785 15.0405 16.0162 14.9369 16.0068 14.8427C15.9691 12.9119 15.1403 11.4143 13.5485 10.3406C13.3601 10.2087 13.2283 10.2181 13.0776 10.3971C11.3728 12.3939 10.8171 14.6732 11.467 17.2162C11.7213 18.224 12.2111 19.1188 12.8892 19.9382V19.9476Z" fill="#FF9975"/>
<path d="M2.19734 17.7165C2.19734 8.90068 9.36491 1.7331 18.1807 1.7331C21.5997 1.7331 24.9716 2.85392 27.7218 4.90718L24.6137 5.19916C24.2746 5.22741 24.0297 5.52881 24.058 5.86788C24.0862 6.20695 24.397 6.45183 24.7267 6.42358L29.2759 5.99974C29.4454 5.9809 29.5961 5.89614 29.6997 5.76428C29.8033 5.63241 29.8504 5.46288 29.8222 5.29334L29.1346 0.753567C29.0875 0.423915 28.7767 0.197868 28.4376 0.235542C28.2775 0.263798 28.1362 0.348566 28.0326 0.480426C27.9384 0.612287 27.8913 0.772404 27.9196 0.932521L28.3905 4.02183C25.4519 1.82729 21.8352 0.621706 18.1713 0.621706C8.7527 0.621706 1.08594 8.28847 1.08594 17.7165C1.08594 20.2784 1.64164 22.7461 2.7342 25.0536C2.82838 25.242 3.02617 25.3739 3.23338 25.3739C3.30873 25.3739 3.3935 25.355 3.46885 25.3173C3.74199 25.1855 3.86443 24.8558 3.73257 24.5733C2.70594 22.4258 2.18792 20.1183 2.18792 17.7165H2.19734Z" fill="#30333F" stroke="#30333F" stroke-width="0.304" stroke-miterlimit="10"/>
<path d="M33.6758 10.5487C33.5911 10.351 33.3933 10.2285 33.1767 10.2285C33.0919 10.2285 33.0165 10.2474 32.9412 10.2756C32.6681 10.4075 32.5456 10.7371 32.6681 11.0103C33.6664 13.1671 34.1656 15.4841 34.1374 17.8859C34.0526 26.6452 26.8944 33.7091 18.154 33.7091C18.0974 33.7091 18.0503 33.7091 17.9938 33.7091C14.5749 33.6715 11.2124 32.513 8.48102 30.4409L11.5892 30.1772C11.9282 30.1489 12.1731 29.8569 12.1449 29.5179C12.1166 29.207 11.8529 28.9622 11.5421 28.9527L6.92695 29.3389C6.75742 29.3577 6.60672 29.4331 6.50311 29.565C6.39951 29.6968 6.35241 29.8664 6.37125 30.0359L7.01172 34.5757C7.04939 34.8771 7.32253 35.1031 7.62393 35.1031C7.65219 35.1031 7.68044 35.1031 7.69928 35.1031C7.85939 35.0843 8.00067 34.9995 8.10428 34.8676C8.20788 34.7358 8.24556 34.5757 8.2173 34.4155L7.78405 31.3262C10.7038 33.549 14.3017 34.7923 17.9656 34.83C18.0221 34.83 18.0786 34.83 18.1351 34.83C22.6278 34.83 26.8756 33.0969 30.0968 29.9323C33.365 26.7299 35.1828 22.4539 35.2299 17.8953C35.2582 15.3334 34.7213 12.8563 33.657 10.5487H33.6758Z" fill="#30333F" stroke="#30333F" stroke-width="0.304" stroke-miterlimit="10"/>
<path d="M20.0078 19.2043C20.3092 18.7805 20.5823 18.3284 20.846 17.8951L20.9308 17.7538C21.1003 17.4807 21.0344 17.1699 20.7707 17.0098C20.5069 16.8402 20.2055 16.925 20.0172 17.2076C19.9795 17.2641 19.9418 17.3206 19.9136 17.3771L19.8665 17.4619C18.1711 20.2592 15.873 22.4726 13.0474 24.0455C12.5482 24.3186 12.0113 24.5635 11.5027 24.799C11.2955 24.8932 11.0789 24.9873 10.8717 25.0909C10.6739 25.1851 10.542 25.3264 10.5044 25.4865C10.4667 25.6278 10.5044 25.7785 10.5891 25.9104C10.6927 26.0611 10.834 26.1364 11.0035 26.1364C11.0977 26.1364 11.2013 26.1082 11.3049 26.0611C11.7005 25.8727 12.0961 25.6843 12.5011 25.4959C12.9155 25.2982 13.3299 25.1004 13.7444 24.9026C13.8197 24.8649 13.9327 24.8555 13.9893 24.8743C15.5527 25.3547 17.1633 25.43 18.7551 25.0909C22.5131 24.2904 25.4611 21.1634 25.9321 17.4713C26.1487 15.7288 26.1204 13.9581 25.8379 12.1968C25.7437 11.6411 25.3104 11.255 24.7642 11.255C24.7453 11.255 24.7359 11.255 24.7171 11.255C24.1802 11.2738 23.6151 11.3021 23.0406 11.3868C20.7612 11.7259 18.6986 12.6207 16.8996 14.0523V14.0335C16.8714 13.8639 16.8431 13.6944 16.8054 13.5343C16.4098 11.7824 15.4303 10.4167 13.9045 9.47487C13.4336 9.18289 12.8873 9.24882 12.5199 9.65382C11.1919 11.0854 10.4573 12.762 10.3254 14.6457C10.1559 16.9815 10.8623 19.0536 12.4258 20.7961C12.4917 20.862 12.5011 20.9091 12.4729 21.0127C12.3787 21.4554 12.2939 21.8886 12.2186 22.3219C12.1903 22.482 12.228 22.6421 12.3222 22.7645C12.4163 22.8776 12.5482 22.9529 12.7083 22.9623C13.038 22.9812 13.2358 22.7645 13.2923 22.3972C13.4524 21.1728 13.7632 20.1179 14.2436 19.176C16.3816 14.9 19.8665 12.5924 24.604 12.3287C24.7359 12.3287 24.7736 12.3287 24.783 12.3287C24.783 12.3287 24.8018 12.3758 24.8113 12.4982C24.8301 12.7243 24.8489 12.9503 24.8772 13.167C24.9431 13.8074 24.9996 14.4667 24.9996 15.1072C24.9996 15.9737 24.9996 16.9627 24.783 17.8763C24.265 20.1933 22.9369 21.9734 20.8178 23.1695C19.0753 24.1585 17.1445 24.4505 15.1007 24.0455C17.0315 22.7269 18.6891 21.0974 20.0172 19.1949L20.0078 19.2043ZM13.4053 12.8185C13.1133 12.875 12.9532 13.1387 13.0003 13.4589C13.038 13.7132 13.0851 13.9581 13.1322 14.2124C13.2263 14.7493 13.3299 15.305 13.3676 15.8513C13.4147 16.4352 13.4147 17.0286 13.4147 17.6031C13.4147 17.848 13.4147 18.0929 13.4147 18.3378C13.4147 18.3566 13.4147 18.3755 13.3865 18.432C13.2263 18.8181 13.0568 19.2043 12.8873 19.5999L12.8496 19.6847C12.2374 18.9029 11.8324 18.0929 11.5969 17.1981C10.9659 14.721 11.4933 12.47 13.1793 10.5015C13.2358 10.4356 13.2734 10.4073 13.3205 10.4073C13.3582 10.4073 13.4053 10.4261 13.4712 10.4732C15.0253 11.5281 15.8353 12.9974 15.873 14.8623C15.873 14.9188 15.8447 14.9942 15.8165 15.0319C15.3832 15.5593 14.95 16.0867 14.5167 16.6048C14.5167 16.6048 14.5167 16.5388 14.5167 16.5106C14.4979 16.1809 14.479 15.8513 14.4319 15.5216C14.3377 14.8152 14.2059 14.09 14.0834 13.4024L14.0646 13.28C14.0363 13.1199 13.9516 12.988 13.8386 12.9127C13.7255 12.8373 13.5748 12.8091 13.4241 12.8373L13.4053 12.8185Z" fill="#30333F" stroke="#30333F" stroke-width="0.304" stroke-miterlimit="10"/>
</g>
<defs>
<clipPath id="clip0_14786_69802">
<rect width="34.4533" height="35.1597" fill="white" transform="translate(0.947266 0.09375)"/>
</clipPath>
</defs>
</svg>
